{"title":"THX 1138 Directors Cut DVDRip AC3-Atilla82","uid":5145714,"size":800270403,"categoryP":"video","categoryS":"movies","magnet":"?xt=urn:btih:ee3219c15e5e880bcb376c1697c5e77194f27810&amp;dn=THX+1138+Directors+Cut+DVDRip+AC3-Atilla82&amp;tr=udp%3A%2F%2Ftracker.openbittorrent.com%3A80&amp;tr=udp%3A%2F%2Fopen.demonii.com%3A1337&amp;tr=udp%3A%2F%2Ftracker.coppersurfer.tk%3A6969&amp;tr=udp%3A%2F%2Fexodus.desync.com%3A6969","seeders":22,"leechers":1,"uploader":"Atilla82","files":7,"time":1257208275,"description":"\n[url]http://www.imdb.com/title/tt0066434/[/url]\n\nThe human race has been relocated to a underground city located beneath the Earth's surface. In the underground city, the population are entertained by holographic TV which broadcasts sex and violence and robotic police force enforces the law. In the underground city, society controls all life, all citizens are drugged to control their emotions and their behavior and sex is a crime. Factory worker THX-1138 stops taking the drugs and he breaks the law when he finds himself falling in love with his room-mate LUH 3417 and is imprisoned when LUH 3417 is pregnant. Escaping from jail with illegal programmer SEN 5241 and a hologram named SRT, THX 1138 goes in search of LUH 3417 and escape to the surface, whilst being pursued by robotic policemen.\n\n\nSubtitles: CROATIAN, ENGLISH, ENGLISH (hearing impared)\n\nGeneral\nComplete name : THX.1138.1971.Directors.Cut.DVDRip.XviD.AC3-Atilla82.avi\nFormat : AVI\nFormat/Info : Audio Video Interleave\nFile size : 762 MiB\nDuration : 1h 28mn\nOverall bit rate : 1 206 Kbps\nWriting application : VirtualDubMod 1.5.10.2 (build 2540/release)\nWriting library : VirtualDubMod build 2540/release\n\nVideo\nID : 0\nFormat : MPEG-4 Visual\nFormat profile : Advanced Simple@L5\nFormat settings, BVOP : Yes\nFormat settings, QPel : No\nFormat settings, GMC : No warppoints\nFormat settings, Matrix : Default (H.263)\nCodec ID : XVID\nCodec ID/Hint : XviD\nDuration : 1h 28mn\nBit rate : 1 069 Kbps\nWidth : 720 pixels\nHeight : 304 pixels\nDisplay aspect ratio : 2.35\nFrame rate : 23.976 fps\nResolution : 24 bits\nColorimetry : 4:2:0\nScan type : Progressive\nBits/(Pixel*Frame) : 0.204\nStream size : 675 MiB (89%)\nWriting library : XviD 1.2.1 (UTC 2008-12-04)\n\nAudio\nID : 1\nFormat : AC-3\nFormat/Info : Audio Coding 3\nCodec ID : 2000\nDuration : 1h 28mn\nBit rate mode : Constant\nBit rate : 128 Kbps\nChannel(s) : 6 channels\nChannel positions : Front: L C R, Surround: L R, LFE\nSampling rate : 48.0 KHz\nStream size : 80.9 MiB (11%)\nAlignment : Split accross interleaves\nInterleave, duration : 42 ms (1.00 video frame)\nInterleave, preload duration : 500 ms","torrent":{"xt":"urn:btih:ee3219c15e5e880bcb376c1697c5e77194f27810","amp;dn":"THX+1138+Directors+Cut+DVDRip+AC3-Atilla82","amp;tr":["udp%3A%2F%2Ftracker.openbittorrent.com%3A80","udp%3A%2F%2Fopen.demonii.com%3A1337","udp%3A%2F%2Ftracker.coppersurfer.tk%3A6969","udp%3A%2F%2Fexodus.desync.com%3A6969"],"infoHash":"ee3219c15e5e880bcb376c1697c5e77194f27810","infoHashBuffer":{"type":"Buffer","data":[238,50,25,193,94,94,136,11,203,55,108,22,151,197,231,113,148,242,120,16]},"announce":[],"urlList":[]}}